HIERARCHY
ROOT RootJoint
{
    OFFSET   0.000000   0.000000   0.000000
    CHANNELS 6 Xposition Yposition Zposition Xrotation Yrotation Zrotation
    JOINT pelvis_lowerback
    {
        OFFSET   0.000000   0.093605   0.000000
        CHANNELS 3 Xrotation Yrotation Zrotation
        JOINT lowerback_torso
        {
            OFFSET   0.000000   0.100000   0.000000
            CHANNELS 3 Xrotation Yrotation Zrotation
            JOINT torso_head
            {
                OFFSET   0.000000   0.282350   0.000000
                CHANNELS 3 Xrotation Yrotation Zrotation
                End Site
                {
                    OFFSET   0.000000   0.192650   0.000000
                }
            }
            JOINT rTorso_Clavicle
            {
                OFFSET  -0.001000   0.157500   0.000000
                CHANNELS 3 Xrotation Yrotation Zrotation
                JOINT rShoulder
                {
                    OFFSET  -0.117647   0.000000   0.000000
                    CHANNELS 3 Xrotation Yrotation Zrotation
                    JOINT rElbow
                    {
                        OFFSET  -0.245000   0.000000   0.000000
                        CHANNELS 3 Xrotation Yrotation Zrotation
                        JOINT rWrist
                        {
                            OFFSET  -0.240000   0.000000   0.000000
                            CHANNELS 3 Xrotation Yrotation Zrotation
                            End Site
                            {
                                OFFSET  -0.116353  -0.002500   0.000000
                            }
                        }
                    }
                }
            }
            JOINT lTorso_Clavicle
            {
                OFFSET   0.001000   0.157500   0.000000
                CHANNELS 3 Xrotation Yrotation Zrotation
                JOINT lShoulder
                {
                    OFFSET   0.117647   0.000000   0.000000
                    CHANNELS 3 Xrotation Yrotation Zrotation
                    JOINT lElbow
                    {
                        OFFSET   0.245000   0.000000   0.000000
                        CHANNELS 3 Xrotation Yrotation Zrotation
                        JOINT lWrist
                        {
                            OFFSET   0.240000   0.000000   0.000000
                            CHANNELS 3 Xrotation Yrotation Zrotation
                            End Site
                            {
                                OFFSET   0.116353  -0.002500   0.000000
                            }
                        }
                    }
                }
            }
        }
    }
    JOINT rHip
    {
        OFFSET  -0.100000  -0.051395   0.000000
        CHANNELS 3 Xrotation Yrotation Zrotation
        JOINT rKnee
        {
            OFFSET   0.000000  -0.410000   0.000000
            CHANNELS 3 Xrotation Yrotation Zrotation
            JOINT rAnkle
            {
                OFFSET   0.000000  -0.390000   0.000000
                CHANNELS 3 Xrotation Yrotation Zrotation
                JOINT rToeJoint
                {
                    OFFSET   0.000000  -0.050000   0.130000
                    CHANNELS 3 Xrotation Yrotation Zrotation
                    End Site
                    {
                        OFFSET  -0.010000   0.002000   0.060000
                    }
                }
            }
        }
    }
    JOINT lHip
    {
        OFFSET   0.100000  -0.051395   0.000000
        CHANNELS 3 Xrotation Yrotation Zrotation
        JOINT lKnee
        {
            OFFSET   0.000000  -0.410000   0.000000
            CHANNELS 3 Xrotation Yrotation Zrotation
            JOINT lAnkle
            {
                OFFSET   0.000000  -0.390000   0.000000
                CHANNELS 3 Xrotation Yrotation Zrotation
                JOINT lToeJoint
                {
                    OFFSET   0.000000  -0.050000   0.130000
                    CHANNELS 3 Xrotation Yrotation Zrotation
                    End Site
                    {
                        OFFSET   0.010000   0.002000   0.060000
                    }
                }
            }
        }
    }
}
MOTION
Frames: 12
Frame Time:   0.008333
 -2.410473   0.699083   4.735981 -12.790357   4.989215  -2.375621  23.022536  -3.173611   0.409098   4.956920  -1.122709   2.413566   2.342888   0.256970   1.425301   1.428285  -0.400999   7.503849   1.469525   7.059316  49.352182   0.000238  24.025647  -0.000653   1.467105   4.261350  -2.289336   2.818838   0.647930  -7.271523   2.480478  -5.372792 -50.202078  -0.003905 -26.236217  -0.000340   0.970037  -3.464624   3.671748 -42.965937  -5.946546  -8.703830  87.954320   0.001299  -0.004622 -26.003569 -11.836013   7.564275  -0.100286  -0.003146   0.001796 -14.085870  -1.773407   5.813114  85.400479  -0.000371   0.002111 -57.326868  -2.596415   1.201977  -2.200462   0.000050   0.000064
 -2.412206   0.696582   4.740004 -12.687126   5.138772  -2.359128  23.054969  -3.233891   0.496172   4.853051  -1.159211   2.393130   2.384587   0.300546   1.317109   1.517098  -0.472889   7.412511   1.487321   7.077303  49.391271   0.000196  24.066975  -0.000554   1.494715   4.244697  -2.344786   2.839413   0.704660  -7.192975   2.396774  -5.407838 -50.065281  -0.004488 -26.804427  -0.000800   0.974907  -3.448682   3.715918 -43.727811  -5.870558  -8.664727  87.519839   0.000833  -0.004576 -26.096114 -11.744196   7.680431   0.040045  -0.003008   0.002036 -13.904677  -1.945911   6.010999  85.652881  -0.000460   0.002231 -57.994042  -2.699161   0.903846  -1.992788   0.000120  -0.000009
 -2.414011   0.693849   4.744127 -12.584333   5.317407  -2.337123  23.082142  -3.293714   0.582172   4.748118  -1.196716   2.379315   2.424721   0.340334   1.214153   1.600920  -0.542775   7.324102   1.505413   7.091137  49.421751   0.000160  24.102744  -0.000476   1.520499   4.207915  -2.410182   2.852155   0.759542  -7.107211   2.313324  -5.441811 -49.924758  -0.004998 -27.341677  -0.001300   0.982633  -3.487427   3.781623 -44.444257  -5.779400  -8.635042  87.157825   0.000384  -0.004435 -26.183009 -11.658350   7.788151   0.159713  -0.002761   0.002149 -13.724713  -2.127951   6.215620  85.935432  -0.000510   0.002440 -58.702483  -2.784969   0.606467  -1.768389   0.000160   0.000000
 -2.415861   0.690948   4.748349 -12.483924   5.498505  -2.300741  23.104717  -3.346197   0.656822   4.645921  -1.230322   2.364944   2.461794   0.377686   1.117116   1.677740  -0.607083   7.241384   1.521476   7.104059  49.447695   0.000132  24.135606  -0.000415   1.545039   4.166163  -2.480934   2.860645   0.810012  -7.021491   2.233002  -5.473950 -49.786827  -0.005343 -27.843885  -0.001735   0.990769  -3.537762   3.863643 -45.112056  -5.681418  -8.615307  86.832722   0.000045  -0.004240 -26.264122 -11.578592   7.888260   0.267474  -0.002499   0.002172 -13.546794  -2.309878   6.412784  86.249409  -0.000566   0.002698 -59.405007  -2.869875   0.318979  -1.599102   0.000154   0.000004
 -2.417747   0.687922   4.752673 -12.383073   5.672313  -2.248433  23.121259  -3.390869   0.719095   4.546350  -1.258626   2.347533   2.495983   0.412708   1.025632   1.747264  -0.665152   7.165293   1.534774   7.117288  49.471243   0.000112  24.166607  -0.000367   1.568629   4.126236  -2.552762   2.867708   0.857305  -6.940140   2.157591  -5.503737 -49.655242  -0.005516 -28.312345  -0.002077   0.998666  -3.587350   3.952166 -45.732750  -5.583398  -8.602833  86.532346  -0.000175  -0.004018 -26.339908 -11.504366   7.981481   0.365598  -0.002249   0.002127 -13.370669  -2.483838   6.599582  86.587958  -0.000628   0.002970 -60.087676  -2.949031   0.042361  -1.500190   0.000127   0.000006
 -2.419667   0.684803   4.757098 -12.278425   5.835988  -2.179981  23.130962  -3.428619   0.769700   4.448762  -1.281763   2.326614   2.527303   0.445456   0.939462   1.809888  -0.717223   7.096054   1.545296   7.131167  49.493504   0.000099  24.196192  -0.000330   1.591360   4.090844  -2.623401   2.874750   0.902124  -6.865303   2.087759  -5.531090 -49.531888  -0.005541 -28.748950  -0.002323   1.006103  -3.632688   4.040730 -46.308629  -5.488862  -8.595179  86.252415  -0.000295  -0.003785 -26.410717 -11.435212   8.068387   0.455316  -0.002020   0.002037 -13.196638  -2.647063   6.775291  86.943709  -0.000692   0.003234 -60.745839  -3.020845  -0.222860  -1.471859   0.000100   0.000006
 -2.421622   0.681618   4.761613 -12.164872   5.991044  -2.095392  23.133224  -3.461088   0.809891   4.352019  -1.300772   2.302612   2.555638   0.475999   0.858426   1.866147  -0.763745   7.033574   1.553222   7.145746  49.515078   0.000091  24.224580  -0.000301   1.613258   4.060953  -2.691821   2.882003   0.944416  -6.797726   2.023259  -5.556367 -49.417405  -0.005449 -29.155836  -0.002480   1.013040  -3.673361   4.125918 -46.843876  -5.399280  -8.591096  85.990613  -0.000340  -0.003553 -26.476866 -11.370745   8.149459   0.537511  -0.001813   0.001917 -13.023903  -2.800244   6.939589  87.302459  -0.000750   0.003460 -61.391826  -3.086091  -0.477533  -1.482203   0.000082   0.000004
 -2.423580   0.677996   4.766434 -12.087165   6.223508  -1.969722  23.097126  -3.522345   0.861548   4.286097  -1.349959   2.258784   2.590459   0.459289   0.762985   1.937858  -0.815262   6.975982   1.527564   7.131691  49.535481   0.000050  24.118972  -0.000141   1.644952   4.089373  -2.706642   2.907932   1.026568  -6.753988   1.958235  -5.590231 -49.233571  -0.005736 -29.584412  -0.002924   1.015407  -3.682452   4.122651 -47.310239  -5.261135  -8.643737  86.102741  -0.000158  -0.002592 -26.822047 -11.305679   8.069575   0.669341  -0.001495   0.002038 -12.779941  -3.041716   7.054882  87.665448  -0.000878   0.003653 -62.169997  -3.140009  -0.835628  -1.345486   0.000141  -0.000002
 -2.425555   0.674079   4.771415 -12.013068   6.467316  -1.830500  23.043652  -3.577726   0.911535   4.214226  -1.398379   2.216119   2.620019   0.442006   0.670684   2.014201  -0.872286   6.922826   1.512823   7.108976  49.548014   0.000012  24.011008  -0.000007   1.672283   4.063827  -2.726282   2.933558   1.110801  -6.709983   1.899149  -5.617608 -49.052443  -0.005973 -29.983635  -0.003366   1.017655  -3.694447   4.134935 -47.713208  -5.113028  -8.695660  86.315377   0.000121  -0.001575 -27.144874 -11.245918   7.993834   0.763923  -0.001196   0.001980 -12.535091  -3.286665   7.167247  88.076071  -0.000994   0.003966 -62.964764  -3.193946  -1.188433  -1.257250   0.000153  -0.000000
 -2.427536   0.669945   4.776508 -11.933355   6.704630  -1.673821  22.976457  -3.626326   0.951373   4.135404  -1.442031   2.173255   2.644455   0.426114   0.583615   2.088925  -0.929249   6.874990   1.502405   7.084437  49.558062  -0.000028  23.907516   0.000101   1.697500   4.017977  -2.750332   2.959291   1.193373  -6.668405   1.845909  -5.640437 -48.879959  -0.006101 -30.354649  -0.003712   1.019123  -3.700625   4.159760 -48.059388  -4.969080  -8.745434  86.549009   0.000346  -0.000709 -27.445042 -11.190163   7.923191   0.849333  -0.000955   0.001881 -12.302014  -3.511141   7.273213  88.528950  -0.001064   0.004360 -63.740742  -3.233196  -1.530052  -0.708287   0.000315   0.000135
 -2.429540   0.666034   4.781674 -11.839455   6.955152  -1.559492  22.912739  -3.669409   1.029387   4.055947  -1.479690   2.152871   2.664065   0.411480   0.504138   2.154357  -0.976493   6.847764   1.489664   7.062728  49.564973  -0.000094  23.808267   0.000197   1.720907   3.959052  -2.786955   2.981477   1.265808  -6.656559   1.794525  -5.663266 -48.725859  -0.006001 -30.698132  -0.003885   1.019572  -3.694302   4.193898 -48.326539  -4.899064  -8.738477  87.583896   0.001208   0.002132 -27.513677 -11.119426   7.906552   0.925771  -0.000681   0.001685 -12.059721  -3.761581   7.423785  88.942927  -0.001112   0.004592 -64.486178  -3.275267  -1.846552  -0.841956   0.000242   0.000086
 -2.431474   0.662382   4.786706 -11.710396   7.164955  -1.460398  22.858684  -3.694831   1.115564   3.970975  -1.503104   2.138291   2.678722   0.398417   0.430968   2.203541  -1.006308   6.827662   1.467502   7.051431  49.574350  -0.000168  23.719358   0.000279   1.743657   3.914057  -2.821193   2.999218   1.327443  -6.659252   1.743640  -5.689058 -48.591899  -0.005739 -31.019955  -0.003837   1.019260  -3.690766   4.219378 -48.597098  -4.831619  -8.703063  88.555881   0.001783   0.004114 -27.655223 -11.066289   7.883238   1.025450  -0.000450   0.001566 -11.842866  -3.995102   7.571718  89.310391  -0.001181   0.004576 -65.175957  -3.305503  -2.139669  -0.981727   0.000193   0.000068
